# Blender v2.68 (sub 0) OBJ File: 'bcMultiBlock_NoCull.blend'
# www.blender.org
o Cube
v 0.998000 0.002001 0.002000
v 0.998000 0.002000 0.998000
v 0.002000 0.002001 0.002000
v 0.998000 0.998001 0.002002
v 0.002000 0.998001 0.002001
v 0.997999 0.998000 0.998001
v 0.002000 0.002000 0.998000
v 0.002000 0.998000 0.998001
vt 1.000000 1.000000
vt 1.000000 0.000000
vt 0.000000 1.000000
vt 0.000000 0.000000
vn 0.000000 -1.000000 -0.000001
vn -0.000000 1.000000 0.000001
vn 1.000000 0.000000 0.000000
vn 0.000000 -0.000001 1.000000
vn -1.000000 -0.000000 0.000000
vn 0.000001 0.000002 -1.000000
vn 1.000000 0.000001 0.000001
vn 0.000000 0.000001 -1.000000
s off
f 1/1/1 2/2/1 3/3/1
f 4/1/2 5/3/2 6/2/2
f 1/4/3 4/3/3 2/2/3
f 2/2/4 6/1/4 7/4/4
f 7/2/5 8/1/5 3/4/5
f 4/1/6 1/2/6 5/3/6
f 2/2/1 7/4/1 3/3/1
f 5/3/2 8/4/2 6/2/2
f 4/3/7 6/1/7 2/2/7
f 6/1/4 8/3/4 7/4/4
f 8/1/5 5/3/5 3/4/5
f 1/2/8 3/4/8 5/3/8
