# Blender v2.69 (sub 0) OBJ File: ''
# www.blender.org
o Cube
v 0.000000 0.000000 1.000000
v 0.000000 0.000000 0.000000
v 1.000000 0.000000 0.000000
v 1.000000 0.000000 1.000000
v 0.000000 0.062500 1.000000
v 0.000001 0.062500 -0.000000
v 1.000000 0.062500 0.000000
v 1.000000 0.062500 1.000000
vt 0.000000 1.000000
vt 0.000000 0.000000
vt 1.000000 1.000000
vt 0.062500 1.000000
vt 0.062500 0.000000
vt 0.000000 0.062500
vt 1.000000 0.062500
vt 1.000000 0.000000
vt 0.937500 0.000000
vt 0.000000 0.937500
vt 1.000000 0.937500
vt 0.937500 1.000000
vn 0.000000 -1.000000 0.000000
vn 0.000000 1.000000 0.000000
vn -1.000000 -0.000004 -0.000001
vn 0.000000 -0.000005 -1.000000
vn 1.000000 -0.000002 0.000000
vn -0.000000 0.000004 1.000000
vn -1.000000 0.000005 0.000000
vn 0.000000 0.000001 -1.000000
vn 1.000000 -0.000004 0.000000
s off
f 1/1/1 2/2/1 4/3/1
f 5/1/2 8/3/2 6/2/2
f 1/1/3 5/4/3 6/5/3
f 2/2/4 6/6/4 7/7/4
f 3/8/5 7/9/5 4/3/5
f 5/10/6 1/1/6 8/11/6
f 2/2/1 3/8/1 4/3/1
f 8/3/2 7/8/2 6/2/2
f 2/2/7 1/1/7 6/5/7
f 3/8/8 2/2/8 7/7/8
f 7/9/9 8/12/9 4/3/9
f 1/1/6 4/3/6 8/11/6
